<svg width="120" height="120" viewBox="0 0 120 120" fill="none" xmlns="http://www.w3.org/2000/svg">
  <!-- Gradient Definition -->
  <defs>
    <linearGradient id="logoGradient" x1="0%" y1="0%" x2="100%" y2="100%">
      <stop offset="0%" style="stop-color:#3B82F6;stop-opacity:1" />
      <stop offset="100%" style="stop-color:#9333EA;stop-opacity:1" />
    </linearGradient>
  </defs>
  
  <!-- Shield Background -->
  <path d="M60 10 L100 30 L100 60 C100 85 85 100 60 110 C35 100 20 85 20 60 L20 30 Z" 
        fill="url(#logoGradient)" 
        opacity="0.2"/>
  
  <!-- Shield Border -->
  <path d="M60 10 L100 30 L100 60 C100 85 85 100 60 110 C35 100 20 85 20 60 L20 30 Z" 
        stroke="url(#logoGradient)" 
        stroke-width="3" 
        fill="none"/>
  
  <!-- Letter A -->
  <path d="M45 75 L60 40 L75 75 M50 65 L70 65" 
        stroke="url(#logoGradient)" 
        stroke-width="5" 
        stroke-linecap="round" 
        stroke-linejoin="round" 
        fill="none"/>
  
  <!-- Letter P -->
  <path d="M60 75 L60 40 L70 40 C75 40 80 45 80 50 C80 55 75 60 70 60 L60 60" 
        stroke="url(#logoGradient)" 
        stroke-width="5" 
        stroke-linecap="round" 
        stroke-linejoin="round" 
        fill="none"/>
  
  <!-- Crypto Symbol (Circle with line) -->
  <circle cx="60" cy="60" r="8" stroke="url(#logoGradient)" stroke-width="2" fill="none" opacity="0.6"/>
  <path d="M60 52 L60 68" stroke="url(#logoGradient)" stroke-width="2" opacity="0.6"/>
</svg>
